<?xml version="1.0" standalone="no"?>
<!DOCTYPE svg PUBLIC "-//W3C//DTD SVG 20010904//EN"
 "http://www.w3.org/TR/2001/REC-SVG-20010904/DTD/svg10.dtd">
<svg version="1.0" xmlns="http://www.w3.org/2000/svg"
 width="500.000000pt" height="500.000000pt" viewBox="0 0 500.000000 500.000000"
 preserveAspectRatio="xMidYMid meet">

<g transform="translate(0.000000,500.000000) scale(0.100000,-0.100000)"
fill="#000000" stroke="none">
<path d="M3340 3882 c-75 -73 -162 -134 -245 -172 -38 -18 -80 -37 -92 -43
-19 -8 -39 -2 -125 41 -149 75 -203 87 -383 87 -188 0 -255 -18 -432 -115 -34
-19 -47 -21 -65 -13 -179 82 -292 155 -367 237 -14 14 -28 26 -33 26 -13 0 -9
-140 6 -196 19 -72 62 -148 119 -210 l48 -53 -42 -63 c-92 -136 -132 -305
-111 -472 6 -51 15 -101 18 -111 8 -21 -10 -17 -101 25 -81 37 -306 122 -311
117 -9 -9 -35 -159 -45 -264 -43 -455 112 -862 428 -1126 116 -96 229 -163
514 -306 250 -125 297 -152 350 -199 l26 -23 79 55 c44 30 175 101 291 159
265 131 400 211 516 308 220 180 359 416 418 705 37 178 31 449 -12 647 -6 26
-13 47 -15 47 -10 0 -344 -131 -374 -147 -14 -7 -28 -13 -31 -13 -4 0 0 28 7
63 18 83 17 210 -1 299 -17 78 -80 218 -121 265 -13 15 -24 30 -24 34 0 3 16
21 36 40 92 87 144 206 144 329 0 41 -4 80 -8 85 -4 7 -29 -10 -62 -43z
m-1589 -186 c57 -49 143 -92 232 -116 l78 -21 64 40 c101 64 199 93 335 99
175 7 300 -24 433 -110 l48 -31 67 18 c78 21 206 84 246 121 34 33 42 26 20
-18 -29 -57 -76 -109 -138 -155 -72 -53 -95 -63 -234 -103 -120 -35 -177 -64
-231 -120 -53 -55 -121 -198 -121 -255 0 -19 -5 -22 -45 -22 -41 0 -46 3 -51
26 -13 64 -50 151 -85 203 -60 88 -124 129 -264 168 -175 49 -211 68 -301 159
-47 47 -114 151 -99 151 4 0 25 -15 46 -34z m169 -322 l52 -26 -36 -30 c-140
-115 -129 -333 22 -442 115 -84 254 -73 357 29 l42 40 -1 -90 c-1 -106 17
-152 96 -238 l48 -52 48 53 c27 29 61 78 77 109 26 53 27 64 22 139 l-6 82 42
-42 c163 -163 420 -82 477 150 10 41 11 61 1 100 -15 62 -52 124 -91 157 -16
14 -30 29 -30 34 0 4 21 18 47 31 l48 23 23 -28 c33 -40 87 -158 103 -223 19
-77 15 -249 -8 -329 l-18 -65 -93 -53 c-132 -74 -215 -136 -302 -223 -95 -95
-192 -242 -240 -365 -43 -108 -52 -142 -79 -283 -10 -51 -21 -95 -23 -98 -3
-2 -8 22 -11 53 -19 168 -102 393 -200 538 -54 80 -165 195 -257 264 -69 53
-232 151 -250 151 -4 0 -18 37 -30 83 -33 119 -31 263 4 372 22 68 96 205 110
205 2 0 28 -12 56 -26z m267 -95 c95 -36 142 -164 94 -257 -69 -134 -257 -134
-327 0 -18 35 -18 131 0 166 18 35 64 78 96 91 34 13 102 13 137 0z m760 0
c34 -13 80 -55 99 -91 17 -33 18 -131 2 -161 -59 -105 -173 -136 -268 -73 -93
61 -108 198 -32 280 49 52 132 71 199 45z m-412 -399 c8 -16 15 -38 15 -50 0
-24 -39 -110 -50 -110 -11 0 -50 86 -50 111 0 23 18 60 34 71 21 14 36 8 51
-22z m-982 -144 c308 -128 497 -259 631 -436 107 -143 177 -340 215 -605 18
-131 43 -485 33 -485 -2 0 -27 15 -57 34 -29 19 -149 83 -267 142 -117 59
-258 137 -312 173 -87 57 -241 195 -287 256 -105 140 -176 299 -215 477 -21
101 -29 322 -15 437 7 52 14 98 16 102 5 7 80 -20 258 -95z m2168 -11 c14
-118 7 -317 -15 -428 -53 -265 -184 -484 -394 -660 -73 -61 -225 -152 -411
-246 -108 -55 -225 -117 -261 -139 l-65 -40 -3 52 c-5 65 14 319 34 459 66
470 250 728 660 932 127 64 427 184 436 176 4 -3 13 -51 19 -106z"/>
<path d="M2057 3172 c-36 -40 -30 -107 12 -139 44 -34 123 -3 137 52 8 31 -12
82 -37 95 -30 17 -94 12 -112 -8z"/>
<path d="M2829 3180 c-23 -14 -42 -65 -35 -95 10 -38 45 -65 86 -65 41 0 76
27 86 65 8 31 -12 82 -37 95 -22 13 -79 12 -100 0z"/>
<path d="M1634 2355 c81 -129 413 -564 476 -625 3 -3 25 -30 50 -60 25 -30 51
-62 60 -70 8 -8 38 -41 65 -74 98 -114 105 -122 105 -105 0 8 -12 44 -26 79
-138 341 -417 678 -714 863 l-35 22 19 -30z"/>
<path d="M3260 2300 c-226 -167 -439 -420 -565 -670 -45 -90 -90 -208 -82
-216 8 -8 247 270 418 486 162 204 339 447 339 465 0 13 -21 0 -110 -65z"/>
</g>
</svg>
