<?xml version="1.0" standalone="no"?>
<!DOCTYPE svg PUBLIC "-//W3C//DTD SVG 20010904//EN"
 "http://www.w3.org/TR/2001/REC-SVG-20010904/DTD/svg10.dtd">
<svg version="1.0" xmlns="http://www.w3.org/2000/svg"
 width="500.000000pt" height="500.000000pt" viewBox="0 0 500.000000 500.000000"
 preserveAspectRatio="xMidYMid meet">

<g transform="translate(0.000000,500.000000) scale(0.100000,-0.100000)"
fill="#000000" stroke="none">
<path d="M1450 4147 c0 -122 49 -230 154 -342 65 -69 67 -75 36 -105 -22 -21
-72 -95 -95 -140 -41 -80 -55 -143 -55 -247 0 -104 27 -207 80 -302 17 -30 29
-55 28 -56 -2 -1 -33 -12 -69 -24 -75 -25 -169 -78 -238 -136 -152 -128 -246
-331 -227 -494 27 -226 251 -372 509 -332 237 38 424 127 476 228 30 58 -9
166 -74 209 -14 9 -24 19 -21 21 11 11 84 -52 115 -98 29 -44 34 -61 35 -116
l1 -64 124 -165 c69 -91 140 -177 158 -191 17 -14 67 -40 110 -58 91 -39 162
-101 195 -169 l22 -46 -23 -24 c-33 -35 -107 -49 -184 -35 -149 27 -213 93
-237 243 -12 74 -10 71 -148 254 -82 108 -84 110 -113 100 -16 -5 -29 -11 -29
-13 0 -1 36 -50 79 -109 44 -58 77 -107 73 -110 -4 -2 -41 -7 -82 -10 -156
-15 -281 -63 -304 -118 -11 -26 -11 -37 1 -66 l14 -34 -52 28 c-119 65 -159
124 -140 206 8 34 7 37 -9 28 -60 -32 -79 -108 -61 -239 54 -383 336 -689 731
-792 110 -29 319 -36 440 -15 416 72 716 365 800 780 9 42 19 57 81 114 201
186 324 509 291 764 -27 207 -126 337 -335 439 -43 21 -83 39 -87 41 -5 2 7
35 26 73 43 88 74 209 74 290 0 122 -54 262 -141 367 -21 26 -39 50 -39 54 0
4 19 25 43 48 88 85 135 161 161 263 16 60 22 153 10 153 -3 0 -31 -23 -62
-51 -32 -28 -93 -74 -137 -103 -78 -52 -235 -136 -254 -136 -5 0 -38 17 -72
38 -84 50 -158 85 -234 110 -93 31 -138 37 -290 37 -220 0 -313 -26 -529 -149
l-68 -39 -71 34 c-91 44 -257 152 -323 212 -29 26 -55 47 -58 47 -3 0 -6 -24
-6 -53z m532 -457 c278 -91 419 -221 435 -402 5 -54 4 -60 -41 -129 -49 -78
-59 -129 -34 -186 19 -44 89 -144 126 -182 l35 -35 51 55 c54 58 110 154 119
206 8 43 -5 82 -48 148 -32 48 -37 64 -36 107 4 184 151 326 431 417 l94 31
54 -33 c112 -67 191 -188 207 -318 24 -196 -114 -391 -324 -458 -61 -19 -172
-13 -252 14 -40 13 -73 23 -74 22 -11 -28 -87 -127 -127 -167 -87 -86 -91 -87
-136 -51 -52 41 -103 98 -148 166 -28 41 -42 54 -53 49 -176 -78 -357 -52
-488 69 -95 88 -143 192 -143 311 0 165 82 292 257 395 0 1 43 -13 95 -29z
m-280 -954 c13 -14 45 -52 71 -85 53 -68 53 -68 -34 -89 -26 -7 -53 -14 -62
-18 -10 -4 -32 15 -67 57 -46 55 -51 66 -46 97 6 42 30 61 77 62 25 0 44 -7
61 -24z m1624 -266 c36 -140 -5 -322 -100 -449 l-26 -35 60 -26 c123 -55 190
-113 190 -166 0 -54 -80 -135 -179 -183 -57 -27 -61 -27 -119 8 -100 59 -272
106 -477 130 -64 8 -133 32 -224 78 -34 18 -219 239 -208 249 3 3 106 5 228 6
222 0 374 -13 529 -46 76 -16 76 -16 144 74 45 58 96 159 114 225 28 104 32
126 32 171 0 62 14 48 36 -36z m-1590 -29 c-8 -12 -128 -60 -194 -77 -59 -16
-151 -19 -137 -5 17 15 273 88 318 90 10 1 16 -3 13 -8z"/>
<path d="M1960 3545 c-59 -18 -120 -71 -149 -129 -19 -35 -24 -62 -24 -116 0
-85 26 -144 89 -198 138 -121 367 -54 419 122 19 64 19 87 -2 155 -43 137
-190 210 -333 166z m125 -135 c78 -30 102 -129 46 -192 -26 -30 -35 -33 -84
-33 -64 0 -94 21 -116 80 -11 32 -10 40 9 79 30 63 86 88 145 66z"/>
<path d="M2874 3544 c-54 -19 -119 -76 -147 -128 -31 -59 -31 -174 1 -234 46
-87 118 -133 220 -140 97 -7 190 42 239 126 25 42 28 57 27 132 0 69 -4 92
-23 124 -65 112 -197 162 -317 120z m142 -140 c69 -33 87 -128 35 -186 -26
-30 -35 -33 -84 -33 -45 0 -60 5 -81 24 -37 35 -51 84 -35 124 30 76 95 104
165 71z"/>
</g>
</svg>
