<?xml version="1.0" standalone="no"?>
<!DOCTYPE svg PUBLIC "-//W3C//DTD SVG 20010904//EN"
 "http://www.w3.org/TR/2001/REC-SVG-20010904/DTD/svg10.dtd">
<svg version="1.0" xmlns="http://www.w3.org/2000/svg"
 width="500.000000pt" height="500.000000pt" viewBox="0 0 500.000000 500.000000"
 preserveAspectRatio="xMidYMid meet">

<g transform="translate(0.000000,500.000000) scale(0.100000,-0.100000)"
fill="#000000" stroke="none">
<path d="M3463 4276 c-79 -66 -188 -128 -278 -160 -116 -40 -136 -41 -209 -7
-173 80 -304 111 -470 111 -162 0 -285 -29 -454 -106 -66 -30 -77 -32 -126
-24 -108 17 -270 97 -376 184 -29 25 -56 44 -58 41 -2 -2 5 -39 16 -83 31
-120 89 -227 168 -305 28 -27 36 -42 29 -51 -6 -7 -32 -40 -58 -72 -53 -66
-101 -157 -116 -224 -15 -65 -13 -215 4 -288 8 -34 26 -85 40 -112 l25 -50
-101 0 c-206 0 -325 -54 -590 -267 -221 -176 -249 -215 -212 -290 24 -49 104
-91 185 -97 53 -3 60 -7 107 -55 27 -28 53 -51 58 -51 4 -1 27 -5 50 -9 23 -4
65 -5 93 0 43 7 58 5 93 -14 32 -17 59 -22 112 -22 60 0 79 5 133 34 66 36
147 115 185 182 12 21 27 39 32 39 6 0 91 -30 190 -66 99 -36 233 -84 298
-107 64 -23 117 -44 117 -47 0 -7 -56 -28 -470 -175 -195 -69 -365 -130 -377
-135 -33 -14 -41 -57 -15 -82 l20 -20 118 40 c114 39 545 193 649 232 28 10
90 33 138 51 l88 33 72 -26 c40 -14 106 -38 147 -53 41 -14 84 -30 95 -35 86
-37 636 -230 656 -230 50 0 68 57 27 84 -13 8 -180 72 -373 141 -438 158 -465
169 -465 176 0 6 200 82 462 174 l147 52 36 -58 c43 -70 127 -148 192 -179 76
-36 148 -38 219 -6 51 23 65 25 106 18 86 -17 164 10 216 74 28 34 36 37 89
41 70 5 154 43 183 83 27 37 26 90 -2 126 -29 37 -31 39 -108 104 -36 30 -67
57 -70 60 -14 14 -142 111 -195 147 -144 97 -256 133 -413 133 -95 0 -104 1
-97 18 116 272 91 488 -77 677 l-52 57 27 20 c33 24 112 129 143 190 28 55 67
190 62 217 -2 16 -13 11 -65 -33z m-718 -181 c50 -14 128 -46 174 -71 48 -25
97 -44 115 -44 48 0 151 27 232 61 41 17 77 30 79 28 6 -7 -59 -74 -109 -113
-71 -54 -149 -91 -286 -135 -138 -45 -190 -73 -242 -129 -58 -63 -75 -105
-109 -267 -13 -62 -76 -215 -89 -215 -21 0 -87 174 -105 275 -30 171 -118 263
-312 325 -188 60 -275 106 -361 191 -74 72 -73 83 5 48 75 -34 200 -69 246
-69 17 0 80 24 141 54 98 48 185 76 281 90 79 12 252 -3 340 -29z m608 -439
c16 -31 36 -91 45 -134 15 -73 15 -85 -1 -162 -23 -119 -67 -200 -154 -287
l-73 -73 73 0 c43 0 98 8 137 20 142 43 302 21 452 -63 111 -62 360 -260 395
-314 14 -21 13 -23 -19 -43 -24 -15 -50 -20 -100 -20 -59 0 -77 5 -145 40 -42
22 -83 38 -90 36 -38 -15 2 -104 61 -135 34 -18 33 -26 -4 -41 -72 -30 -189 8
-258 85 -73 79 -112 11 -47 -83 19 -28 35 -54 35 -57 0 -10 -65 -4 -103 9 -21
8 -55 26 -75 40 -42 28 -112 115 -112 137 0 9 19 20 45 28 47 14 61 35 51 77
-9 36 -49 31 -205 -25 -75 -27 -219 -79 -321 -116 -102 -36 -232 -83 -290
-104 -149 -55 -141 -54 -217 -28 -215 77 -399 143 -478 172 -363 135 -398 144
-410 104 -13 -40 2 -65 47 -79 24 -7 46 -15 50 -17 24 -12 -90 -146 -150 -176
-39 -19 -116 -32 -132 -22 -8 5 -4 15 13 34 58 62 73 133 28 139 -17 3 -35 -9
-69 -44 -25 -26 -64 -55 -87 -65 -45 -21 -117 -24 -164 -8 l-32 11 41 35 c53
45 74 86 60 113 -15 27 -34 25 -83 -8 -57 -39 -99 -52 -168 -52 -63 0 -105 14
-114 38 -7 18 45 68 185 181 155 126 236 176 349 217 85 31 213 33 316 4 61
-17 205 -28 205 -16 0 3 -27 30 -60 62 -74 71 -115 133 -146 225 -59 174 -8
375 126 504 29 28 32 28 63 16 17 -7 47 -18 65 -25 39 -13 40 -21 5 -40 -40
-20 -95 -84 -120 -136 -39 -85 -38 -199 4 -287 24 -50 97 -121 151 -146 38
-18 66 -22 142 -22 84 0 101 3 146 27 29 15 72 50 97 78 l45 52 15 -44 c8 -23
18 -50 22 -59 4 -11 0 -18 -14 -22 -29 -7 -26 -32 13 -112 41 -85 91 -155 111
-155 34 0 161 204 153 247 -2 10 -12 19 -24 21 -20 3 -20 3 4 53 l25 50 46
-47 c70 -72 116 -89 236 -89 92 0 104 2 154 30 71 39 122 99 149 176 50 142
11 274 -108 368 l-50 39 63 30 62 31 55 -59 c30 -31 68 -83 83 -114z m-1181
30 c44 -21 93 -68 116 -111 23 -42 22 -159 -1 -207 -35 -75 -135 -138 -217
-138 -97 0 -196 73 -225 166 -39 123 13 241 130 296 49 23 143 20 197 -6z
m849 9 c99 -35 159 -120 159 -224 0 -129 -113 -241 -243 -241 -52 0 -137 41
-174 83 -30 34 -63 117 -63 159 0 56 27 115 75 163 71 73 153 92 246 60z"/>
<path d="M2024 3581 c-55 -24 -84 -98 -60 -155 40 -97 172 -96 213 2 18 44 6
96 -31 131 -26 25 -89 36 -122 22z"/>
<path d="M2894 3580 c-62 -25 -86 -129 -43 -183 43 -56 127 -57 178 -3 83 88
-22 232 -135 186z"/>
<path d="M2477 2188 c-15 -12 -17 -48 -19 -353 l-3 -340 -189 -3 c-159 -2
-193 -5 -208 -19 -23 -21 -23 -55 0 -76 17 -15 62 -17 449 -17 404 0 431 1
446 18 20 22 22 63 5 80 -8 8 -68 12 -204 12 l-192 0 -4 73 c-3 39 -6 193 -7
342 -1 171 -6 274 -13 282 -13 16 -39 17 -61 1z"/>
<path d="M1646 1848 c-14 -19 -16 -77 -16 -425 l0 -403 -129 0 c-144 0 -173
-11 -173 -63 -1 -58 -6 -57 358 -57 333 0 333 0 348 22 22 31 20 45 -9 73 -23
24 -29 25 -165 25 l-140 0 0 409 c0 359 -2 412 -16 425 -21 22 -40 20 -58 -6z"/>
<path d="M3306 1848 c-14 -19 -16 -77 -16 -425 l0 -403 -138 0 c-155 0 -182
-9 -182 -60 0 -60 -1 -60 360 -60 l330 0 15 24 c19 29 11 72 -15 86 -10 6 -75
10 -144 10 l-126 0 0 405 c0 392 -1 406 -20 425 -26 26 -45 25 -64 -2z"/>
</g>
</svg>
